<?xml version="1.0" encoding="UTF-8"?>
<svg width="88px" height="88px" viewBox="0 0 88 88" version="1.1" xmlns="http://www.w3.org/2000/svg" xmlns:xlink="http://www.w3.org/1999/xlink">
    <title>icon/无数据@4x</title>
    <defs>
        <linearGradient x1="50%" y1="0%" x2="50%" y2="100%" id="linearGradient-1">
            <stop stop-color="#5B91EB" offset="0%"></stop>
            <stop stop-color="#3360C6" offset="100%"></stop>
        </linearGradient>
        <filter x="-17.6%" y="-66.7%" width="135.3%" height="233.3%" filterUnits="objectBoundingBox" id="filter-2">
            <feGaussianBlur stdDeviation="2" in="SourceGraphic"></feGaussianBlur>
        </filter>
        <linearGradient x1="50%" y1="0%" x2="50%" y2="118.114262%" id="linearGradient-3">
            <stop stop-color="#EBEBEB" offset="0%"></stop>
            <stop stop-color="#CCCCCC" offset="100%"></stop>
        </linearGradient>
    </defs>
    <g id="icon/无数据" stroke="none" stroke-width="1" fill="none" fill-rule="evenodd">
        <g id="编组" transform="translate(18.000000, 21.000000)">
            <rect id="矩形备份-2" fill="url(#linearGradient-1)" x="9" y="0" width="34" height="38" rx="2"></rect>
            <polygon id="矩形" fill-opacity="0.650513549" fill="#0C2E73" style="mix-blend-mode: multiply;" filter="url(#filter-2)" points="9 25 11.6842105 25 17.9473684 30 34.0526316 30 40.7631579 25 43 25 43 34 9 34"></polygon>
            <polygon id="路径" fill="#FFFFFF" points="32 10.3333333 27.3333333 15 32 19.6666667 30.6666667 21 26 16.3333333 21.3333333 21 20 19.6666667 24.6666667 15 20 10.3333333 21.3333333 9 26 13.6666667 30.6666667 9"></polygon>
            <path d="M2,25 L7.85281509,25 C8.60249396,25 9.33708445,25.2106778 9.97281085,25.6080068 L16.0271891,29.3919932 C16.6629156,29.7893222 17.397506,30 18.1471849,30 L33.8528151,30 C34.602494,30 35.3370844,29.7893222 35.9728109,29.3919932 L42.0271891,25.6080068 C42.6629156,25.2106778 43.397506,25 44.1471849,25 L50,25 C51.1045695,25 52,25.8954305 52,27 L52,44 C52,45.1045695 51.1045695,46 50,46 L2,46 C0.8954305,46 1.3527075e-16,45.1045695 0,44 L0,27 C-1.3527075e-16,25.8954305 0.8954305,25 2,25 Z" id="矩形备份-3" fill-opacity="0.8" fill="url(#linearGradient-3)"></path>
            <rect id="矩形" fill="#FFFFFF" x="38" y="34" width="7" height="4" rx="2"></rect>
        </g>
    </g>
</svg>