<?xml version="1.0" encoding="UTF-8"?>
<svg width="390px" height="214px" viewBox="0 0 390 214" version="1.1" xmlns="http://www.w3.org/2000/svg" xmlns:xlink="http://www.w3.org/1999/xlink">
    <!-- Generator: Sketch 62 (91390) - https://sketch.com -->
    <title>icon/暂无课程</title>
    <desc>Created with Sketch.</desc>
    <defs>
        <radialGradient cx="50.3947368%" cy="133.502941%" fx="50.3947368%" fy="133.502941%" r="336.911765%" gradientTransform="translate(0.503947,1.335029),scale(0.149123,1.000000),translate(-0.503947,-1.335029)" id="radialGradient-1">
            <stop stop-color="#808083" offset="0%"></stop>
            <stop stop-color="#9A9A9C" offset="7%"></stop>
            <stop stop-color="#B9B9BA" offset="17%"></stop>
            <stop stop-color="#D2D2D4" offset="28%"></stop>
            <stop stop-color="#E6E6E7" offset="40%"></stop>
            <stop stop-color="#F4F4F5" offset="53%"></stop>
            <stop stop-color="#FDFDFD" offset="70%"></stop>
            <stop stop-color="#FFFFFF" offset="99%"></stop>
        </radialGradient>
        <linearGradient x1="50%" y1="-12.8320236%" x2="50%" y2="87.8112866%" id="linearGradient-2">
            <stop stop-color="#A8A8A8" stop-opacity="0.15" offset="0%"></stop>
            <stop stop-color="#A8A8A8" stop-opacity="0" offset="100%"></stop>
        </linearGradient>
        <radialGradient cx="21.004851%" cy="36.001386%" fx="21.004851%" fy="36.001386%" r="94.5945946%" id="radialGradient-3">
            <stop stop-color="#FFFFFF" offset="0%"></stop>
            <stop stop-color="#C1C1C1" offset="100%"></stop>
        </radialGradient>
        <radialGradient cx="88.790625%" cy="35.6875%" fx="88.790625%" fy="35.6875%" r="94%" id="radialGradient-4">
            <stop stop-color="#FFFFFF" offset="0%"></stop>
            <stop stop-color="#D7D7D7" offset="100%"></stop>
        </radialGradient>
        <linearGradient x1="0%" y1="50%" x2="100%" y2="50%" id="linearGradient-5">
            <stop stop-color="#F2F2F2" offset="0%"></stop>
            <stop stop-color="#EDEDED" offset="13%"></stop>
            <stop stop-color="#E0E0E0" offset="59%"></stop>
            <stop stop-color="#DBDBDB" offset="100%"></stop>
        </linearGradient>
        <linearGradient x1="50%" y1="100%" x2="50%" y2="0%" id="linearGradient-6">
            <stop stop-color="#FAFAFA" offset="0%"></stop>
            <stop stop-color="#DBDBDB" offset="100%"></stop>
        </linearGradient>
        <linearGradient x1="0%" y1="50%" x2="100%" y2="50%" id="linearGradient-7">
            <stop stop-color="#C9C9C9" offset="0%"></stop>
            <stop stop-color="#DADADA" offset="57%"></stop>
            <stop stop-color="#EBEBEB" offset="100%"></stop>
        </linearGradient>
        <linearGradient x1="0%" y1="50%" x2="100%" y2="30.8034258%" id="linearGradient-8">
            <stop stop-color="#FAFAFA" offset="0%"></stop>
            <stop stop-color="#DBDBDB" offset="100%"></stop>
        </linearGradient>
        <linearGradient x1="50%" y1="100%" x2="50%" y2="0%" id="linearGradient-9">
            <stop stop-color="#FAFAFA" offset="0%"></stop>
            <stop stop-color="#DBDBDB" offset="100%"></stop>
        </linearGradient>
        <linearGradient x1="0%" y1="50.0188893%" x2="100%" y2="50.0188893%" id="linearGradient-10">
            <stop stop-color="#FAFAFA" offset="0%"></stop>
            <stop stop-color="#ECECEC" offset="100%"></stop>
        </linearGradient>
        <linearGradient x1="0%" y1="49.9040947%" x2="100.831745%" y2="49.9040947%" id="linearGradient-11">
            <stop stop-color="#FAFAFA" offset="0%"></stop>
            <stop stop-color="#ECECEC" offset="100%"></stop>
        </linearGradient>
        <linearGradient x1="49.0482328%" y1="13.4708885%" x2="50.9292577%" y2="100.372512%" id="linearGradient-12">
            <stop stop-color="#FFF6EC" offset="0%"></stop>
            <stop stop-color="#FDEAD6" offset="100%"></stop>
        </linearGradient>
        <linearGradient x1="50.1802736%" y1="0.480524434%" x2="50.1802736%" y2="100.407187%" id="linearGradient-13">
            <stop stop-color="#494B80" offset="0%"></stop>
            <stop stop-color="#272756" offset="100%"></stop>
        </linearGradient>
        <linearGradient x1="50.2528613%" y1="0.230873489%" x2="50.2528613%" y2="98.213852%" id="linearGradient-14">
            <stop stop-color="#FFFFFF" offset="0%"></stop>
            <stop stop-color="#FFFFFF" offset="100%"></stop>
        </linearGradient>
        <linearGradient x1="52.011%" y1="-0.472262786%" x2="52.011%" y2="99.9500138%" id="linearGradient-15">
            <stop stop-color="#8CAFF7" offset="0%"></stop>
            <stop stop-color="#6A95F5" offset="100%"></stop>
        </linearGradient>
        <linearGradient x1="-1.09536082%" y1="58.5148074%" x2="52.7706186%" y2="49.3202949%" id="linearGradient-16">
            <stop stop-color="#1F1F49" offset="0%"></stop>
            <stop stop-color="#424776" offset="100%"></stop>
        </linearGradient>
        <linearGradient x1="-1.09606705%" y1="55.0150248%" x2="74.8549323%" y2="47.5291561%" id="linearGradient-17">
            <stop stop-color="#1F1F49" offset="0%"></stop>
            <stop stop-color="#424776" offset="100%"></stop>
        </linearGradient>
        <linearGradient x1="-0.118518519%" y1="50%" x2="100.118519%" y2="50%" id="linearGradient-18">
            <stop stop-color="#F2F2F2" offset="0%"></stop>
            <stop stop-color="#EDEDED" offset="13%"></stop>
            <stop stop-color="#E0E0E0" offset="59%"></stop>
            <stop stop-color="#DBDBDB" offset="100%"></stop>
        </linearGradient>
        <linearGradient x1="50%" y1="100%" x2="50%" y2="0%" id="linearGradient-19">
            <stop stop-color="#4B82FA" stop-opacity="0" offset="0%"></stop>
            <stop stop-color="#4B82FA" stop-opacity="0.6" offset="100%"></stop>
        </linearGradient>
        <linearGradient x1="50%" y1="100%" x2="50%" y2="0%" id="linearGradient-20">
            <stop stop-color="#4B82FA" stop-opacity="0" offset="0%"></stop>
            <stop stop-color="#4B82FA" stop-opacity="0.6" offset="100%"></stop>
        </linearGradient>
        <linearGradient x1="50%" y1="100%" x2="50%" y2="0%" id="linearGradient-21">
            <stop stop-color="#4B82FA" stop-opacity="0" offset="0%"></stop>
            <stop stop-color="#4B82FA" stop-opacity="0.6" offset="100%"></stop>
        </linearGradient>
    </defs>
    <g id="icon/暂无课程" stroke="none" stroke-width="1" fill="none" fill-rule="evenodd">
        <g id="编组">
            <ellipse id="椭圆形" fill="url(#radialGradient-1)" fill-rule="nonzero" opacity="0.36" style="mix-blend-mode: multiply;" cx="191" cy="149" rx="114" ry="17"></ellipse>
            <path d="M195,101.36 C302.695526,101.36 390,145.236095 390,199.36 C390,204.335436 389.262231,209.224273 387.838672,214.000388 L2.16132771,214.000388 C0.737769363,209.224273 0,204.335436 0,199.36 C0,145.236095 87.3044738,101.36 195,101.36 Z" id="形状结合" fill="url(#linearGradient-2)" fill-rule="nonzero"></path>
            <circle id="椭圆形" fill="url(#radialGradient-3)" fill-rule="nonzero" opacity="0.84" cx="251.57" cy="156.43" r="14.43"></circle>
            <circle id="椭圆形" fill="url(#radialGradient-4)" fill-rule="nonzero" opacity="0.66" cx="282.5" cy="72.86" r="8"></circle>
            <polygon id="路径" fill="url(#linearGradient-5)" fill-rule="nonzero" points="120 51 191 70 191 152 125 126"></polygon>
            <polygon id="路径" fill="url(#linearGradient-6)" fill-rule="nonzero" points="254 45 191 70 191 152 252 124"></polygon>
            <polygon id="路径" fill="url(#linearGradient-7)" fill-rule="nonzero" points="192 31 120 51 191 70 254 45"></polygon>
            <polygon id="路径" fill="url(#linearGradient-8)" fill-rule="nonzero" points="120 51 149 59 215.86 36.05 192 31"></polygon>
            <polygon id="路径" fill="url(#linearGradient-9)" fill-rule="nonzero" points="149 59 191 70 253.98 44.99 215.86 36.05"></polygon>
            <polygon id="路径" fill="url(#linearGradient-10)" fill-rule="nonzero" points="158 61.31 223.6 37.85 210.43 34.84 139.55 56.23"></polygon>
            <path d="M139.55,56.23 C139.56077,56.3764689 139.56077,56.5235311 139.55,56.67 L139.63,57.85 L139.75,59.51 L139.88,61.42 L140.01,63.34 L140.13,65.02 L140.21,66.23 C140.210721,66.5077725 140.335568,66.7706815 140.55038,66.9467888 C140.765193,67.1228961 141.047479,67.1937635 141.32,67.14 C141.402278,67.1214409 141.480311,67.0875133 141.55,67.04 C141.621359,66.9740004 141.685091,66.9002059 141.74,66.82 C141.939821,66.5831089 142.230301,66.4415001 142.54,66.43 C142.849624,66.4248044 143.148471,66.5436234 143.37,66.76 C143.71,67.09 143.82,67.62 144.18,67.93 C144.539363,68.2399312 145.044096,68.3175825 145.48,68.13 C145.9,67.93 145.97,67.38 146.48,67.32 C146.783504,67.3037903 147.075428,67.4385244 147.26,67.68 C147.443823,67.919188 147.588925,68.1857717 147.69,68.47 C147.799803,68.7546162 147.940654,69.0262576 148.11,69.28 C148.287587,69.5308384 148.544901,69.7141302 148.84,69.8 C149.41873,69.9483187 150.017722,69.644544 150.24,69.09 C150.33612,68.7861326 150.611623,68.5745145 150.93,68.56 C151.183556,68.5464478 151.428489,68.65407 151.59,68.85 C151.675397,68.9639358 151.745962,69.0882658 151.8,69.22 C151.93,69.5 152.07,69.77 152.21,70.04 C152.425499,70.5358971 152.771013,70.9643353 153.21,71.28 C153.42,71.39 153.73,71.44 153.88,71.28 C153.921534,71.2106782 153.955081,71.1368743 153.98,71.06 C154.08575,70.6895269 154.273754,70.3477002 154.53,70.06 C154.580157,69.9965271 154.641084,69.942369 154.71,69.9 C154.815705,69.8797405 154.924295,69.8797405 155.03,69.9 C155.270039,69.876404 155.511421,69.9288784 155.72,70.05 C155.808876,70.1222189 155.883488,70.2103962 155.94,70.31 C156.133187,70.598176 156.294151,70.9066909 156.42,71.23 C156.537966,71.5736787 156.681707,71.9079619 156.85,72.23 C157.04,72.51 157.73,73.12 157.85,72.54 C157.899972,72.1248316 157.899972,71.7051684 157.85,71.29 L157.85,61.31 L139.55,56.23 Z" id="路径" fill="url(#linearGradient-11)" fill-rule="nonzero"></path>
            <g id="人物" transform="translate(110.000000, 91.000000)">
                <path d="M35.12,13.1 L32.39,4.59 L26.39,3.72 C25.29,3.26666667 24.29,3.98666667 23.39,5.88 C22,8.71 22.12,15.55 22.1,16.28 C22.08,17.01 22.1,17.34 23.1,17.73 C23.44,17.85 25.78,17.5 26.38,17.96 C26.81,18.28 26.96,19.16 26.86,20.6 C27.9242277,21.5597733 29.250988,22.1796246 30.67,22.38 C31.8271578,22.3051489 32.9304367,21.8638373 33.82,21.12 L32.39,17.22 L35.12,13.1 Z" id="脸" fill="url(#linearGradient-12)"></path>
                <path d="M36.51,4.91 C35.7899261,2.81792659 34.0834497,1.21623384 31.95,0.63 C29.9812368,0.130105797 27.9187632,0.130105797 25.95,0.63 C24.37,1.04 23.71,0.85 22.67,2.54 C22.0967279,3.48043375 21.9238644,4.61124914 22.19,5.68 C23.7447319,4.90774357 25.454124,4.49748945 27.19,4.48 C28.6817798,4.73666883 30.0501676,5.46998438 31.09,6.57 C31.92,7.39 32.45,8.57 32.63,10.99 C33.0424834,11.0135517 33.4358869,11.1716156 33.75,11.44 C34.0192392,11.7617828 34.1194685,12.1923973 34.02,12.6 C33.3566956,13.732361 32.5936698,14.8032744 31.74,15.8 C33.2066667,16.06 34.4366667,15.23 35.43,13.31 C36.686544,10.6997648 37.0653883,7.75319791 36.51,4.91 L36.51,4.91 Z" id="头发" fill="url(#linearGradient-13)"></path>
                <path d="M33,18.5 C33.5666667,20.6733333 32.4,22.0066667 30.5,22 C28.6,21.9933333 27,21 26.5,18.5 C24.7437844,18.4842394 21.5057502,18.6464314 19.91,19.38 C18.1671141,20.6089933 16.6023287,22.0728249 15.26,23.73 L11.4,27.88 C13.48,28.6 14.77,29.09 15.26,29.34 C15.9505283,29.8398606 16.4734817,30.5371318 16.76,31.34 L41.28,55.48 L44.69,57.48 L48.97,54.67 C48.7833333,46.7366667 48.5266667,40.7833333 48.2,36.81 C47.71,30.81 47.07,27.68 45.49,24.54 C43.91,21.4 40.29,20.12 38.49,19.37 C36.9670474,18.7941879 35.6220746,18.6407763 34,18.5 L33,18.5 Z" id="上半身" fill="url(#linearGradient-14)"></path>
                <path d="M49,54.75 C44.56,55.96 42.19,56.32 41.92,55.4 C41.65,54.48 41.32,50.4 40.92,43.15 C41.7733333,41.8166667 41.7733333,40.6666667 40.92,39.7 C40.0666667,38.7333333 37.87,38.11 34.33,37.83 C32.7566667,35.7366667 31.32,34.5733333 30.02,34.34 C28.72,34.1066667 27.3,34.75 25.76,36.27 C24.5133333,32.6966667 21.9566667,31.0733333 18.09,31.4 C12.44,31.87 10.62,53.06 10.4,53.98 C9.61256722,57.6256884 9.14413082,61.333028 9,65.06 C9,66.93 15.28,64.65 15,66.06 C14.6,68.2133333 16.2666667,69.9833333 20,71.37 L25.8,64.31 C27.93,64.8 30.33,65.39 32.99,66.06 C36.2485935,67.058264 39.7314065,67.058264 42.99,66.06 C45.84,65.12 46.45,63.93 47.43,61.28 C48.1525212,59.156098 48.6780702,56.9702157 49,54.75 L49,54.75 Z" id="下半身" fill="url(#linearGradient-15)"></path>
                <path d="M35.93,37.6 C35.93,37.6 32.83,45.94 30.32,47.05 C27.56,48.27 25.24,46.05 23.95,45.75 C22.7382764,45.2981802 21.6147409,44.6382723 20.63,43.8 C19.27,42.67 18.71,40.8 17.84,40.8 C16.97,40.8 18.25,43.3 17.84,43.3 C17.43,43.3 12.77,40.52 12.77,38.92 C12.77,37.32 18.2,32.06 18.11,31.66 C18.02,31.26 15.43,27.81 13.59,28.16 C11.75,28.51 9.84,32.16 8.98,33.49 C7.05,36.49 5.72,40.09 6.53,41.72 C8.35,45.35 25.98,51.53 28.3,52.4 C30.62,53.27 31.53,53.72 33.63,52.83 C35.73,51.94 38.45,47.34 40.05,45.41 C41.0326228,44.3272898 41.5995409,42.9312538 41.65,41.47 C41.65,39.27 40.65,38.86 40.02,38.47 C39.39,38.08 38,37.86 35.93,37.6 Z" id="路径" fill="#FBDBBE"></path>
                <path d="M14.38,65.58 C13.95,65.16 12.59,64.64 10.31,64.03 C9.33213548,64.3385349 8.43886519,64.8690211 7.7,65.58 C6.31,66.82 4.99,68.74 3.7,69.97 C2.61137557,70.9102155 1.37907681,71.6698517 0.05,72.22 C1.304409,74.3434191 3.91976076,75.2350163 6.21,74.32 C8.78333333,73.52 11.9033333,71.4966667 15.57,68.25 C15.3995174,67.275505 14.9907189,66.3582848 14.38,65.58 L14.38,65.58 Z" id="鞋子" fill="url(#linearGradient-16)"></path>
                <path d="M20.09,71.3 C19.66,70.88 18.31,70.36 16.03,69.74 C15.0535452,70.0566435 14.1613067,70.5899355 13.42,71.3 C12.03,72.54 10.7,74.46 9.36,75.69 C8.27191377,76.6233041 7.0435035,77.3792489 5.72,77.93 C6.97123409,80.0571646 9.58732188,80.9532596 11.88,80.04 C14.44,79.24 17.5566667,77.2166667 21.23,73.97 C21.0742956,73.0000985 20.6828368,72.0832607 20.09,71.3 L20.09,71.3 Z" id="路径" fill="url(#linearGradient-17)"></path>
            </g>
            <line x1="149" y1="59" x2="216.5" y2="36.5" id="路径" stroke="url(#linearGradient-18)" stroke-width="0.5" opacity="0.53"></line>
            <polygon id="路径" fill="url(#linearGradient-19)" fill-rule="nonzero" points="210.91 21 215 21 213.36 3.82 206 6.27"></polygon>
            <polygon id="路径" fill="url(#linearGradient-20)" fill-rule="nonzero" points="218 21 221 0 230 2 222 22"></polygon>
            <polygon id="路径" fill="url(#linearGradient-21)" fill-rule="nonzero" points="225 24 228 27 240 14 235 11"></polygon>
        </g>
    </g>
</svg>